<svg width="240" height="240" viewBox="0 0 240 240" fill="none" xmlns="http://www.w3.org/2000/svg">
<path d="M104.234 118.219C104.234 119.531 103.883 120.715 103.18 121.77C102.5 122.801 101.551 123.621 100.332 124.23C99.1367 124.816 97.7773 125.109 96.2539 125.109C94.4727 125.109 93.0547 124.723 92 123.949C90.9453 123.152 90.418 122.062 90.418 120.68V120.609C90.418 119.273 90.9336 118.207 91.9648 117.41C92.9961 116.59 94.4961 116.121 96.4648 116.004L104.234 115.505V118.219Z" fill="white"/>
<path d="M60.4365 111.75H47.415L53.8203 91.1133H54.0312L60.4365 111.75Z" fill="white"/>
<path fill-rule="evenodd" clip-rule="evenodd" d="M151 33C173.091 33 191 50.9086 191 73V174C191 196.091 173.091 214 151 214H50C27.9086 214 10 196.091 10 174V73C10 50.9086 27.9086 33 50 33H151ZM34 177C31.2386 177 29 179.239 29 182C29 184.761 31.2386 187 34 187H102C104.761 187 107 184.761 107 182C107 179.239 104.761 177 102 177H34ZM34 152C31.2386 152 29 154.239 29 157C29 159.761 31.2386 162 34 162H148C150.761 162 153 159.761 153 157C153 154.239 150.761 152 148 152H34ZM98.4688 93.5391C95.1641 93.5391 92.3047 94.0547 89.8906 95.0859C87.5 96.0938 85.625 97.5 84.2656 99.3047C82.9297 101.109 82.168 103.172 81.9805 105.492L81.9453 105.914H91.332L91.4023 105.598C91.6602 104.379 92.3516 103.371 93.4766 102.574C94.6016 101.777 96.125 101.379 98.0469 101.379C100.062 101.379 101.598 101.871 102.652 102.855C103.707 103.816 104.234 105.129 104.234 106.793V109.096L94.918 109.676C91.8008 109.887 89.1523 110.461 86.9727 111.398C84.793 112.336 83.1289 113.625 81.9805 115.266C80.832 116.883 80.2578 118.84 80.2578 121.137V121.207C80.2578 123.41 80.7852 125.379 81.8398 127.113C82.918 128.824 84.4062 130.172 86.3047 131.156C88.2031 132.117 90.4062 132.598 92.9141 132.598C94.5781 132.598 96.1133 132.352 97.5195 131.859C98.9258 131.344 100.18 130.629 101.281 129.715C102.406 128.777 103.32 127.664 104.023 126.375H104.234V132H114.5V106.16C114.5 103.629 113.832 101.414 112.496 99.5156C111.184 97.6172 109.332 96.1523 106.941 95.1211C104.551 94.0664 101.727 93.5391 98.4688 93.5391ZM29.9844 132H41.1289L44.9482 119.695H62.9033L66.7227 132H77.8672L60.1836 81.2695H47.7031L29.9844 132ZM150.5 48C135.312 48 123 60.3122 123 75.5C123 90.6878 135.312 103 150.5 103C165.688 103 178 90.6878 178 75.5C178 60.3122 165.688 48 150.5 48Z" fill="white"/>
<path d="M160.172 66.1718C161.734 64.6097 164.266 64.6097 165.828 66.1718C167.39 67.7339 167.39 70.266 165.828 71.8281L149.828 87.8281C148.266 89.3902 145.734 89.3902 144.172 87.8281L137.172 80.8281C135.609 79.266 135.609 76.7339 137.172 75.1718C138.734 73.6097 141.266 73.6097 142.828 75.1718L147 79.3437L160.172 66.1718Z" fill="white"/>
<path d="M163 9C163 6.23858 165.239 4 168 4C170.761 4 173 6.23858 173 9L173 22C173 24.7614 170.761 27 168 27C165.239 27 163 24.7614 163 22L163 9Z" fill="white"/>
<path d="M203.357 48.428C200.793 49.4533 197.883 48.2063 196.858 45.6425C195.832 43.0787 197.079 40.1689 199.643 39.1432L210.359 34.857C212.922 33.8314 215.832 35.0785 216.858 37.6424C217.883 40.2063 216.636 43.1162 214.072 44.1417L203.357 48.428Z" fill="white"/>
<path d="M190.965 15.1989C192.582 12.9603 195.707 12.4562 197.946 14.073C200.184 15.6898 200.688 18.8152 199.072 21.0538L191.927 30.9467C190.31 33.1853 187.185 33.6894 184.946 32.0726C182.707 30.4558 182.203 27.3304 183.82 25.0917L190.965 15.1989Z" fill="white"/>
<path d="M197.975 55.834C217.148 61.0545 229.885 79.8558 227.02 100.041L212.825 200.038C209.72 221.91 189.473 237.124 167.601 234.02L97.0137 224H151C178.614 224 201 201.614 201 174V73C201 66.9689 199.931 61.1875 197.975 55.834Z" fill="white"/>
</svg>
